<svg version="1.1" xmlns="http://www.w3.org/2000/svg" xmlns:xlink="http://www.w3.org/1999/xlink" width="45.91397" height="46.62379" viewBox="0,0,45.91397,46.62379"><g transform="translate(-216.76873,-151.10162)"><g data-paper-data="{&quot;isPaintingLayer&quot;:true}" fill-rule="nonzero" stroke="none" stroke-width="0.5" stroke-linecap="butt" stroke-linejoin="miter" stroke-miterlimit="10" stroke-dasharray="" stroke-dashoffset="0" style="mix-blend-mode: normal"><path d="M262.447,164.88634c0.53033,0.53033 0,1.06066 0,1.06066l-0.66667,0.66667c-0.03399,0.03338 -0.06899,0.06699 -0.10494,0.10078c0.01111,6.90068 -0.00873,13.80164 -0.00873,20.70222c-0.19484,2.40743 -4.20888,3.01547 -6.25306,3.90086c-3.8495,1.66733 -7.71503,3.27694 -11.49568,5.10363c-0.87196,0.42131 -2.97697,2.05559 -4.00703,0.89538c-0.15738,0.02774 -0.2842,0.0066 -0.2842,0.0066c-6.88205,-1.15698 -15.17199,-3.75404 -20.79519,-7.95074c-2.78744,-1.67855 -2.00155,-3.05052 -1.83006,-6.00232c0.30113,-5.18303 0.33057,-10.35154 0.33184,-15.55927c-0.12676,-0.73095 -0.16558,-1.47935 -0.16662,-2.0608c0,0 0,-0.35258 0.24175,-0.57425c0.06762,-0.93776 0.18393,-1.85004 0.36087,-2.82331c-0.22139,-0.12022 -0.39518,-0.26953 -0.42947,-0.5041c-0.17612,-1.20477 4.05648,-2.98126 4.88965,-3.42627c3.06799,-1.63867 6.05172,-3.43032 9.20714,-4.85345c3.05967,-1.37994 4.82485,-3.70318 8.14416,-1.66296c4.1759,2.51577 9.0582,4.43584 13.59611,6.14093c2.51111,0.94353 4.93463,1.38636 7.28295,2.69589l0.23996,-0.13712c0.11222,-0.06691 0.24339,-0.10535 0.38354,-0.10535c0.41421,0 0.75,0.33579 0.75,0.75c0,0.05572 -0.00608,0.11002 -0.0176,0.16227l-0.15264,0.76322c0.00331,0.84303 0.006,1.68607 0.00815,2.52911c0.20288,-0.08172 0.48932,-0.1047 0.77576,0.18174zM257.78353,168.97279c-1.32725,0.3179 -1.90704,-0.78401 -3.0494,-0.4881c-1.31568,0.3408 -1.72306,1.60356 -2.77435,2.08067c-1.768,0.80237 -2.71619,-0.19666 -3.97652,1.50939c-0.85456,0.80242 -2.19026,0.87014 -3.18624,1.48834c-0.79276,0.49206 -1.46933,1.4405 -2.40238,1.43661c-0.48631,-0.00203 -0.85487,-0.35803 -1.22797,-0.72221c0,6.60196 0,13.20391 0,19.80587c0,0.73259 -0.1543,1.45876 -0.16999,2.19117c-0.00757,0.35301 0.60483,-0.36541 0.91792,-0.52866c1.09469,-0.5708 1.60092,-0.79206 2.71928,-1.31387c2.09873,-0.97924 4.18915,-1.98027 6.32651,-2.8738c2.39026,-0.99926 4.77556,-2.00894 7.16927,-3.00108c0.7123,-0.29524 2.22298,-0.25442 2.03701,-1.14042c0,-6.51344 -0.01487,-13.02713 -0.00864,-19.54067c-0.78295,0.50007 -1.64325,0.92164 -2.37449,1.09679zM238.35607,173.49246c-0.58837,-0.04305 -0.73595,1.17344 -1.3259,1.17232c-0.38471,-0.00073 -0.5589,-0.54495 -0.90051,-0.72187c-0.49901,-0.25844 -1.89626,1.06629 -2.54632,1.05709c-0.89639,-0.01268 -1.56511,-0.89277 -2.25614,-1.46387c-0.80016,-0.66129 -1.66707,-0.11532 -2.78241,-0.93082c-0.34118,-0.44898 -0.50148,-1.02736 -0.8818,-1.44371c-0.40465,-0.443 -0.60558,1.30768 -1.20485,1.33725c-0.52418,0.02587 -0.88321,-0.57462 -1.27473,-0.92412c-0.71749,-0.64047 -1.77979,-2.84541 -2.61587,-3.09727c-0.94802,-0.28558 -1.44863,1.40624 -2.04567,1.7143c-0.69725,0.35976 -1.25287,0.40567 -1.69474,0.24011c-0.01861,3.85646 -0.0885,7.68909 -0.32901,11.53796c-0.06333,1.01343 -0.93543,4.5642 -0.3251,5.48339c0.30248,0.45556 1.0262,0.39366 1.49548,0.67439c5.35951,4.04085 13.39911,6.56849 20.00573,7.6827c-0.01874,-0.71139 -0.00755,-1.47098 -0.00755,-1.72698c0,-6.83545 0,-13.6709 0,-20.50636c-0.57194,-0.03915 -1.28956,-0.08298 -1.3106,-0.08452zM219.34354,169.21325c0.30555,0.18084 0.43832,-0.56143 0.69248,-0.80937c0.7662,-0.74748 1.6458,-1.68126 2.89644,-1.38135c1.05833,0.25379 2.08402,2.09826 2.84787,2.8638c0.2975,0.29816 0.27765,1.39191 0.59486,1.11481c1.59124,-1.39005 1.69328,-1.54394 3.24669,0.5602c0.88031,0.85759 1.28199,-0.10402 2.55092,0.73585c0.55099,0.36469 0.61802,1.22839 1.41053,1.2028c1.75093,-0.05653 1.68807,-1.52154 3.55317,-0.33145c0.43195,0.27562 0.50475,-1.06178 1.00743,-1.16102c0.3495,-0.069 0.59171,0.43011 0.93864,0.51104c0.19191,0.04477 0.38772,0.00051 0.58409,-0.07018c0,-1.06127 0,-2.12254 0,-3.18381c-7.09336,-0.76545 -13.79866,-4.03021 -20.48617,-6.30183c-0.2592,1.49408 -0.34716,2.83649 -0.34716,4.45392c0,0.24401 -0.00008,0.48789 -0.00027,0.73164c0.09943,0.50007 0.25795,0.91549 0.51048,1.06495zM242.4387,173.50032c0.63999,-0.00618 1.20418,-1.01123 1.59762,-1.23006c0.88864,-0.49425 2.1326,-0.42336 2.81376,-1.17833c1.43158,-1.88363 2.60646,-1.02619 4.35681,-1.82395c1.18222,-0.53882 1.64075,-1.91364 3.22565,-2.25267c0.77491,-0.16576 1.56656,0.26899 2.32311,0.50475c0.83459,0.26007 2.44522,-0.71217 3.40472,-1.47406c0.00189,-1.17354 0.00458,-2.34708 0.00827,-3.52061c-1.23486,1.32727 -3.74064,2.05698 -5.21785,2.87843c-4.36066,2.42489 -8.46145,3.1196 -13.30558,3.92695c-0.15951,0.00046 -0.31902,0.00091 -0.47853,0.00137c0,1.03364 0,2.06728 0,3.10093c0.42605,0.39543 0.71848,1.0726 1.27203,1.06725zM252.65646,159.45341c-4.6266,-1.73162 -9.60186,-3.70988 -13.8599,-6.26908c-2.17842,-1.38854 -3.7529,-0.06878 -5.82152,1.20525c-2.77488,1.709 -5.8335,3.07761 -8.6915,4.68123c-0.73025,0.40974 -4.07904,2.03821 -4.97025,2.35148c0.00026,0.00122 0.00052,0.00244 0.00077,0.00366c6.63367,2.2369 13.33092,5.55669 20.37183,6.33354c0.04598,-0.21992 0.20192,-0.59282 0.73077,-0.59282c0.5959,0 0.71834,0.47346 0.74349,0.66803c0.12044,0.0004 0.24087,0.0008 0.36131,0.0012c3.68195,-0.61366 7.4646,-0.88105 10.90242,-2.59461c2.2515,-1.12225 4.30788,-2.51111 6.55474,-3.58371c-2.04001,-0.98611 -4.14893,-1.39076 -6.32218,-2.20415z" fill="#000000"/><path d="M239.70594,173.54603c0,6.83545 -0.00567,13.73888 -0.00567,20.57433c0,0.25601 -0.0137,1.01774 0.00503,1.72913c-6.60662,-1.11422 -14.7191,-3.6536 -20.07862,-7.69445c-0.46927,-0.28073 -1.1959,-0.22388 -1.49838,-0.67944c-0.61033,-0.91919 0.25649,-4.4931 0.31982,-5.50653c0.24051,-3.84886 0.32793,-7.71875 0.34653,-11.57521c0.44187,0.16555 1.00144,0.11661 1.69868,-0.24315c0.59704,-0.30806 1.10537,-2.00428 2.0534,-1.7187c0.83608,0.25186 1.90292,2.45498 2.62041,3.09545c0.39152,0.3495 0.75493,0.9487 1.27911,0.92283c0.59926,-0.02957 0.80686,-1.78141 1.21151,-1.33841c0.38031,0.41635 0.54442,0.99448 0.8856,1.44346c1.11534,0.81549 1.9977,0.27151 2.79786,0.9328c0.69103,0.5711 1.37352,1.45762 2.26991,1.4703c0.65006,0.0092 2.05283,-1.31125 2.55184,-1.05281c0.34161,0.17692 0.51949,0.7248 0.9042,0.72553c0.58995,0.00112 0.73759,-1.2153 1.32596,-1.17225c0.02104,0.00154 0.74086,0.04797 1.3128,0.08712z" data-paper-data="{&quot;noHover&quot;:false,&quot;origItem&quot;:[&quot;Path&quot;,{&quot;applyMatrix&quot;:true,&quot;segments&quot;:[[[238.35607,173.49246],[0.02104,0.00154],[-0.58837,-0.04305]],[[237.03017,174.66478],[0.58995,0.00112],[-0.38471,-0.00073]],[[236.12965,173.94291],[0.34161,0.17692],[-0.49901,-0.25844]],[[233.58333,175],[0.65006,0.0092],[-0.89639,-0.01268]],[[231.3272,173.53613],[0.69103,0.5711],[-0.80016,-0.66129]],[[228.54478,172.60532],[1.11534,0.81549],[-0.34118,-0.44898]],[[227.66299,171.1616],[0.38031,0.41635],[-0.40465,-0.443]],[[226.45814,172.49885],[0.59926,-0.02957],[-0.52418,0.02587]],[[225.18341,171.57473],[0.39152,0.3495],[-0.71749,-0.64047]],[[222.56754,168.47747],[0.83608,0.25186],[-0.94802,-0.28558]],[[220.52187,170.19176],[0.59704,-0.30806],[-0.69725,0.35976]],[[218.82712,170.43188],[0.44187,0.16555],[-0.01861,3.85646]],[[218.49811,181.96983],[0.24051,-3.84886],[-0.06333,1.01343]],[[218.17301,187.45323],[-0.61033,-0.91919],[0.30248,0.45556]],[[219.66849,188.12761],[-0.46927,-0.28073],[5.35951,4.04085]],[[239.67422,195.81032],[-6.60662,-1.11422],[-0.01874,-0.71139]],[[239.66667,194.08333],[0,0.25601],[0,-6.83545]],[[239.66667,173.57698],[0,6.83545],[-0.57194,-0.03915]]],&quot;closed&quot;:true}]}" fill="#e3a033"/><path d="M260.18591,167.83449c-0.00623,6.51353 0.02452,13.09292 0.02452,19.60636c0.18596,0.886 -1.33043,0.85346 -2.04274,1.14869c-2.39371,0.99214 -4.81508,2.01933 -7.20534,3.01859c-2.13736,0.89353 -4.25153,1.88961 -6.35025,2.86885c-1.11836,0.52181 -1.62967,0.74024 -2.72436,1.31104c-0.31308,0.16325 -0.92668,0.88088 -0.91911,0.52787c0.0157,-0.73242 0.16711,-1.4607 0.16711,-2.19329c0,-6.60196 -0.00748,-13.27518 -0.00748,-19.87714c0.3731,0.36418 0.74235,0.71938 1.22866,0.7214c0.93304,0.00389 1.61933,-0.95316 2.41209,-1.44521c0.99598,-0.6182 2.34716,-0.6929 3.20171,-1.49532c1.26033,-1.70604 2.22696,-0.70827 3.99496,-1.51064c1.05129,-0.47711 1.46732,-1.73805 2.78301,-2.07885c1.14236,-0.2959 1.73161,0.80997 3.05886,0.49208c0.73124,-0.17514 1.59542,-0.59436 2.37838,-1.09443z" data-paper-data="{&quot;noHover&quot;:false,&quot;origItem&quot;:[&quot;Path&quot;,{&quot;applyMatrix&quot;:true,&quot;segments&quot;:[[[257.78353,168.97279],[0.73124,-0.17514],[-1.32725,0.3179]],[[254.73413,168.48468],[1.14236,-0.2959],[-1.31568,0.3408]],[[251.95978,170.56535],[1.05129,-0.47711],[-1.768,0.80237]],[[247.98326,172.07473],[1.26033,-1.70604],[-0.85456,0.80242]],[[244.79701,173.56307],[0.99598,-0.6182],[-0.79276,0.49206]],[[242.39464,174.99968],[0.93304,0.00389],[-0.48631,-0.00203]],[[241.16667,174.27746],[0.3731,0.36418],[0,6.60196]],[[241.16667,194.08333],[0,-6.60196],[0,0.73259]],[[240.99667,196.27451],[0.0157,-0.73242],[-0.00757,0.35301]],[[241.91459,195.74585],[-0.31308,0.16325],[1.09469,-0.5708]],[[244.63387,194.43198],[-1.11836,0.52181],[2.09873,-0.97924]],[[250.96038,191.55817],[-2.13736,0.89353],[2.39026,-0.99926]],[[258.12965,188.55709],[-2.39371,0.99214],[0.7123,-0.29524]],[[260.16667,187.41667],[0.18596,0.886],[0,-6.51344]],[[260.15803,167.876],[-0.00623,6.51353],[-0.78295,0.50007]]],&quot;closed&quot;:true}]}" fill="#e44200"/><path d="M259.0285,161.66119c-2.24686,1.0726 -4.30635,2.47553 -6.55785,3.59779c-3.43782,1.71356 -7.25235,2.01099 -10.9343,2.62464c-0.12044,-0.0004 -0.24298,-0.00019 -0.36341,-0.00059c-0.02516,-0.19456 -0.15138,-0.66718 -0.74728,-0.66718c-0.52885,0 -0.69021,0.37359 -0.73619,0.59351c-7.04091,-0.77685 -13.79164,-4.14345 -20.42531,-6.38036c-0.00025,-0.00121 -0.00051,-0.00244 -0.00077,-0.00367c0.8912,-0.31327 4.24005,-1.94861 4.9703,-2.35836c2.85801,-1.60362 5.93011,-3.00271 8.70499,-4.71171c2.06863,-1.27403 3.67699,-2.60941 5.8554,-1.22087c4.25804,2.5592 9.2857,4.58458 13.9123,6.31621c2.17325,0.81339 4.28212,1.22448 6.32213,2.21059z" data-paper-data="{&quot;noHover&quot;:false,&quot;origItem&quot;:[&quot;Path&quot;,{&quot;applyMatrix&quot;:true,&quot;segments&quot;:[[[252.65646,159.45341],[2.17325,0.81339],[-4.6266,-1.73162]],[[238.79656,153.18434],[4.25804,2.5592],[-2.17842,-1.38854]],[[232.97504,154.38959],[2.06863,-1.27403],[-2.77488,1.709]],[[224.28353,159.07081],[2.85801,-1.60362],[-0.73025,0.40974]],[[219.31329,161.42229],[0.8912,-0.31327],[0.00026,0.00122]],[[219.31406,161.42595],[-0.00025,-0.00121],[6.63367,2.2369]],[[239.6859,167.75949],[-7.04091,-0.77685],[0.04598,-0.21992]],[[240.41667,167.16667],[-0.52885,0],[0.5959,0]],[[241.16016,167.83469],[-0.02516,-0.19456],[0.12044,0.0004]],[[241.52147,167.83589],[-0.12044,-0.0004],[3.68195,-0.61366]],[[252.42389,165.24127],[-3.43782,1.71356],[2.2515,-1.12225]],[[258.97864,161.65756],[-2.24686,1.0726],[-2.04001,-0.98611]]],&quot;closed&quot;:true}]}" fill="#27ff00"/><path d="M241.12133,172.45416c0,-1.03364 -0.00419,-2.0815 -0.00419,-3.11514c0.15951,-0.00046 0.31907,-0.00056 0.47858,-0.00102c4.84413,-0.80735 9.0371,-1.5353 13.39776,-3.96019c1.47721,-0.82145 3.98358,-1.55016 5.21845,-2.87743c-0.00369,1.17353 -0.00071,2.36193 -0.0026,3.53547c-0.9595,0.76189 -2.66892,1.74831 -3.50351,1.48824c-0.75656,-0.23576 -1.45004,-0.68735 -2.22494,-0.52159c-1.5849,0.33903 -2.07202,1.77259 -3.25424,2.31141c-1.75035,0.79776 -2.98389,-0.07423 -4.41547,1.8094c-0.68116,0.75497 -1.92827,0.67971 -2.81691,1.17395c-0.39344,0.21883 -0.95716,1.22461 -1.59715,1.23079c-0.55355,0.00534 -0.84972,-0.67848 -1.27577,-1.0739z" data-paper-data="{&quot;noHover&quot;:false,&quot;origItem&quot;:[&quot;Path&quot;,{&quot;applyMatrix&quot;:true,&quot;segments&quot;:[[[242.4387,173.50032],[-0.55355,0.00534],[0.63999,-0.00618]],[[244.03632,172.27026],[-0.39344,0.21883],[0.88864,-0.49425]],[[246.85008,171.09193],[-0.68116,0.75497],[1.43158,-1.88363]],[[251.20689,169.26798],[-1.75035,0.79776],[1.18222,-0.53882]],[[254.43253,167.01532],[-1.5849,0.33903],[0.77491,-0.16576]],[[256.75565,167.52006],[-0.75656,-0.23576],[0.83459,0.26007]],[[260.16036,166.046],[-0.9595,0.76189],[0.00189,-1.17354]],[[260.16863,162.52539],[-0.00369,1.17353],[-1.23486,1.32727]],[[254.95078,165.40382],[1.47721,-0.82145],[-4.36066,2.42489]],[[241.64519,169.33078],[4.84413,-0.80735],[-0.15951,0.00046]],[[241.16667,169.33214],[0.15951,-0.00046],[0,1.03364]],[[241.16667,172.43307],[0,-1.03364],[0.42605,0.39543]]],&quot;closed&quot;:true}]}" fill="#00dbbd"/><path d="M218.78306,168.1479c0.00019,-0.24375 0.00042,-0.49112 0.00042,-0.73514c0,-1.61743 0.09351,-2.97912 0.35271,-4.4732c6.68751,2.27162 13.48686,5.5645 20.58023,6.32995c0,1.06127 -0.00341,2.13637 -0.00341,3.19764c-0.19638,0.07069 -0.3927,0.11618 -0.58461,0.07141c-0.34693,-0.08093 -0.58895,-0.58048 -0.93845,-0.51149c-0.50269,0.09924 -0.57913,1.44362 -1.01108,1.16801c-1.86509,-1.19009 -1.81285,0.287 -3.56379,0.34353c-0.79251,0.02559 -0.86211,-0.83613 -1.41311,-1.20082c-1.26894,-0.83987 -1.69425,0.13083 -2.57456,-0.72676c-1.55342,-2.10414 -1.69701,-1.96525 -3.28825,-0.5752c-0.31721,0.2771 -0.30648,-0.82982 -0.60398,-1.12798c-0.76385,-0.76554 -1.79351,-2.64093 -2.85185,-2.89473c-1.25064,-0.29991 -2.03114,0.64234 -2.79734,1.38982c-0.25415,0.24794 -0.48667,0.99608 -0.79222,0.81523c-0.25253,-0.14946 -0.41129,-0.57021 -0.51072,-1.07028z" data-paper-data="{&quot;noHover&quot;:false,&quot;origItem&quot;:[&quot;Path&quot;,{&quot;applyMatrix&quot;:true,&quot;segments&quot;:[[[219.34354,169.21325],[-0.25253,-0.14946],[0.30555,0.18084]],[[220.03602,168.40388],[-0.25415,0.24794],[0.7662,-0.74748]],[[222.93246,167.02253],[-1.25064,-0.29991],[1.05833,0.25379]],[[225.78033,169.88634],[-0.76385,-0.76554],[0.2975,0.29816]],[[226.37519,171.00115],[-0.31721,0.2771],[1.59124,-1.39005]],[[229.62188,171.56135],[-1.55342,-2.10414],[0.88031,0.85759]],[[232.1728,172.2972],[-1.26894,-0.83987],[0.55099,0.36469]],[[233.58333,173.5],[-0.79251,0.02559],[1.75093,-0.05653]],[[237.1365,173.16855],[-1.86509,-1.19009],[0.43195,0.27562]],[[238.14393,172.00754],[-0.50269,0.09924],[0.3495,-0.069]],[[239.08257,172.51858],[-0.34693,-0.08093],[0.19191,0.04477]],[[239.66667,172.4484],[-0.19638,0.07069],[0,-1.06127]],[[239.66667,169.26458],[0,1.06127],[-7.09336,-0.76545]],[[219.1805,162.96275],[6.68751,2.27162],[-0.2592,1.49408]],[[218.83333,167.41667],[0,-1.61743],[0,0.24401]],[[218.83306,168.1483],[0.00019,-0.24375],[0.09943,0.50007]]],&quot;closed&quot;:true}]}" fill="#00dc09"/></g></g></svg>