<svg version="1.1" xmlns="http://www.w3.org/2000/svg" xmlns:xlink="http://www.w3.org/1999/xlink" width="8.65385" height="7.7336" viewBox="0,0,8.65385,7.7336"><g transform="translate(-235.75,-176.32409)"><g data-paper-data="{&quot;isPaintingLayer&quot;:true}" fill="#ffffff" fill-rule="nonzero" stroke="none" stroke-width="0.5" stroke-linecap="butt" stroke-linejoin="miter" stroke-miterlimit="10" stroke-dasharray="" stroke-dashoffset="0" style="mix-blend-mode: normal"><path d="M235.75,179.92308c0,-0.75 0.75,-0.75 0.75,-0.75l0.73187,0.00093c0.70584,-0.07058 1.41838,-0.10276 2.13351,-0.11429c0,-0.48144 0,-0.96289 0,-1.44433l0.08446,-0.64453c0,0 0.10607,-0.74246 0.84853,-0.6364c0.74246,0.10607 0.6364,0.84853 0.6364,0.84853l-0.06939,0.4324c0,0.48144 0,0.96288 0,1.44432c0.93301,0.01124 1.86553,0.03645 2.78846,0.03645c0,0 0.75,0 0.75,0.75c0,0.75 -0.75,0.75 -0.75,0.75c-0.92292,0 -1.8555,-0.02569 -2.78846,-0.03681c0,0.91611 0,1.83223 0,2.74834c0,0 0,0.75 -0.75,0.75c-0.75,0 -0.75,-0.75 -0.75,-0.75c0,-0.91581 0,-1.83162 0,-2.74744c-0.69004,0.01194 -1.37757,0.04377 -2.05879,0.11189l-0.80659,0.00093c0,0 -0.75,0 -0.75,-0.75z"/></g></g></svg>